<?xml version="1.0" encoding="UTF-8" standalone="no"?>
<!-- Created with Inkscape (http://www.inkscape.org/) -->

<svg
   version="1.1"
   id="svg824"
   xml:space="preserve"
   width="373.798"
   height="312.16599"
   viewBox="0 0 373.79799 312.16599"
   sodipodi:docname="Logo of Petrolimex.svg"
   inkscape:version="1.1 (c68e22c387, 2021-05-23)"
   xmlns:inkscape="http://www.inkscape.org/namespaces/inkscape"
   xmlns:sodipodi="http://sodipodi.sourceforge.net/DTD/sodipodi-0.dtd"
   xmlns="http://www.w3.org/2000/svg"
   xmlns:svg="http://www.w3.org/2000/svg"><defs
     id="defs828"><clipPath
       clipPathUnits="userSpaceOnUse"
       id="clipPath187162"><path
         d="m 191.338,331.546 h 112.14 v 93.65 h -112.14 z"
         id="path187160" /></clipPath><radialGradient
       fx="0"
       fy="0"
       cx="0"
       cy="0"
       r="1"
       gradientUnits="userSpaceOnUse"
       gradientTransform="matrix(17.48329,0,0,-17.48329,256.10326,394.16525)"
       spreadMethod="pad"
       id="radialGradient187230"><stop
         style="stop-opacity:1;stop-color:#fcf172"
         offset="0"
         id="stop187224" /><stop
         style="stop-opacity:1;stop-color:#f89420"
         offset="0.769663"
         id="stop187226" /><stop
         style="stop-opacity:1;stop-color:#f58220"
         offset="1"
         id="stop187228" /></radialGradient></defs><sodipodi:namedview
     id="namedview826"
     pagecolor="#ffffff"
     bordercolor="#666666"
     borderopacity="1.0"
     inkscape:pageshadow="2"
     inkscape:pageopacity="0.0"
     inkscape:pagecheckerboard="0"
     showgrid="false"
     inkscape:zoom="2.8284271"
     inkscape:cx="140.18392"
     inkscape:cy="177.30703"
     inkscape:window-width="1920"
     inkscape:window-height="1002"
     inkscape:window-x="-8"
     inkscape:window-y="-8"
     inkscape:window-maximized="1"
     inkscape:current-layer="g830" /><g
     id="g830"
     inkscape:groupmode="layer"
     inkscape:label="petrolimex"
     transform="matrix(1.3333333,0,0,-1.3333333,824.59131,1477.6369)"><g
       id="g187156"
       transform="matrix(2.5,0,0,2.5,-1096.79,45.23774)"><g
         id="g187158"
         clip-path="url(#clipPath187162)"><g
           id="g187164"
           transform="translate(197.1666,337.2352)"><path
             d="M 0,0 C 0.496,0 0.857,0.083 1.088,0.247 1.317,0.413 1.432,0.684 1.432,1.061 1.432,1.4 1.317,1.649 1.088,1.803 0.857,1.954 0.496,2.032 0,2.032 H -2.683 V 0 Z m -2.604,-4.954 c 0.053,-0.054 0.19,-0.092 0.414,-0.115 v -0.212 h -3.638 v 0.212 c 0.223,0.023 0.361,0.061 0.414,0.115 0.054,0.053 0.08,0.12 0.08,0.202 V 3.48 c 0,0.083 -0.026,0.151 -0.08,0.203 -0.053,0.053 -0.191,0.091 -0.414,0.116 V 4.01 H 0.496 C 1.049,4.01 1.538,3.93 1.962,3.772 2.385,3.612 2.739,3.397 3.021,3.126 3.305,2.855 3.516,2.54 3.658,2.182 3.798,1.823 3.87,1.448 3.87,1.061 3.87,0.672 3.798,0.297 3.658,-0.062 3.516,-0.421 3.305,-0.732 3.021,-0.998 2.739,-1.264 2.385,-1.475 1.962,-1.635 1.538,-1.792 1.049,-1.872 0.496,-1.872 h -3.179 v -2.88 c 0,-0.082 0.025,-0.149 0.079,-0.202"
             style="fill:#0962ae;fill-opacity:1;fill-rule:nonzero;stroke:none"
             id="path187166" /></g><g
           id="g187168"
           transform="translate(209.6383,335.3445)"><path
             d="m 0,0 c -0.024,0.119 -0.073,0.215 -0.15,0.292 -0.076,0.077 -0.204,0.115 -0.379,0.115 h -3.286 v -1.642 h 5.67 c 0.094,0 0.165,0.032 0.212,0.096 0.047,0.065 0.082,0.209 0.106,0.433 h 0.211 v -3.02 H 2.173 C 2.149,-3.573 2.114,-3.479 2.067,-3.443 2.02,-3.408 1.949,-3.391 1.855,-3.391 H -6.96 v 0.212 c 0.225,0.024 0.363,0.062 0.416,0.116 0.052,0.052 0.079,0.12 0.079,0.202 v 8.232 c 0,0.082 -0.027,0.15 -0.079,0.202 -0.053,0.054 -0.191,0.092 -0.416,0.116 V 5.9 h 8.815 c 0.094,0 0.165,0.034 0.212,0.098 0.047,0.064 0.082,0.197 0.106,0.397 H 2.384 V 3.321 H 2.173 C 2.149,3.521 2.114,3.654 2.067,3.719 2.02,3.783 1.949,3.816 1.855,3.816 h -5.67 V 2.351 h 3.286 c 0.175,0 0.303,0.037 0.379,0.115 0.077,0.075 0.126,0.173 0.15,0.291 H 0.212 V 0 Z"
             style="fill:#0962ae;fill-opacity:1;fill-rule:nonzero;stroke:none"
             id="path187170" /></g><g
           id="g187172"
           transform="translate(216.6353,332.1658)"><path
             d="m 0,0 c 0.223,0.023 0.361,0.062 0.415,0.115 0.052,0.053 0.08,0.12 0.08,0.202 V 6.925 H -2.544 C -2.637,6.925 -2.708,6.893 -2.755,6.827 -2.802,6.762 -2.838,6.63 -2.861,6.43 h -0.212 v 3.143 h 0.212 c 0.023,-0.199 0.059,-0.332 0.106,-0.396 0.047,-0.065 0.118,-0.098 0.211,-0.098 h 8.726 c 0.094,0 0.166,0.033 0.213,0.098 0.046,0.064 0.082,0.197 0.106,0.396 H 6.712 V 6.43 H 6.501 C 6.477,6.63 6.441,6.762 6.395,6.827 6.348,6.893 6.276,6.925 6.182,6.925 H 3.145 V 0.317 C 3.145,0.235 3.171,0.168 3.224,0.115 3.277,0.062 3.416,0.023 3.639,0 V -0.212 H 0 Z"
             style="fill:#0962ae;fill-opacity:1;fill-rule:nonzero;stroke:none"
             id="path187174" /></g><g
           id="g187176"
           transform="translate(231.0904,337.325)"><path
             d="M 0,0 C 0.518,0 0.873,0.096 1.068,0.291 1.262,0.485 1.36,0.711 1.36,0.971 1.36,1.229 1.262,1.456 1.068,1.65 0.873,1.844 0.518,1.942 0,1.942 H -2.968 V 0 Z m -2.889,-5.044 c 0.053,-0.054 0.191,-0.092 0.415,-0.115 v -0.212 h -3.639 v 0.212 c 0.223,0.023 0.362,0.061 0.415,0.115 0.053,0.053 0.08,0.12 0.08,0.202 v 8.233 c 0,0.082 -0.027,0.15 -0.08,0.202 -0.053,0.053 -0.192,0.092 -0.415,0.116 V 3.92 H 0.353 C 1.659,3.92 2.608,3.683 3.196,3.205 3.786,2.728 4.08,1.989 4.08,0.987 4.08,0.176 3.842,-0.461 3.364,-0.92 2.888,-1.38 2.285,-1.709 1.553,-1.908 L 3.638,-4.842 C 3.779,-5.053 3.951,-5.159 4.15,-5.159 V -5.371 H 0.477 v 0.212 c 0.258,0.012 0.388,0.117 0.388,0.317 0,0.025 -0.047,0.107 -0.141,0.248 -0.095,0.141 -0.212,0.312 -0.353,0.513 -0.141,0.199 -0.298,0.414 -0.468,0.643 -0.172,0.23 -0.337,0.452 -0.495,0.664 -0.159,0.211 -0.298,0.4 -0.416,0.565 -0.117,0.165 -0.194,0.275 -0.229,0.335 h -1.731 v -2.968 c 0,-0.082 0.027,-0.149 0.079,-0.202"
             style="fill:#0962ae;fill-opacity:1;fill-rule:nonzero;stroke:none"
             id="path187178" /></g><g
           id="g187180"
           transform="translate(241.1309,339.0193)"><path
             d="m 0,0 c -0.347,-0.119 -0.653,-0.287 -0.918,-0.505 -0.266,-0.219 -0.477,-0.491 -0.636,-0.816 -0.158,-0.325 -0.238,-0.694 -0.238,-1.108 0,-0.414 0.08,-0.783 0.238,-1.108 0.159,-0.324 0.37,-0.597 0.636,-0.816 0.265,-0.217 0.571,-0.385 0.918,-0.504 0.347,-0.119 0.716,-0.176 1.105,-0.176 0.388,0 0.757,0.057 1.103,0.176 0.348,0.119 0.654,0.287 0.92,0.504 0.264,0.219 0.477,0.492 0.635,0.816 0.159,0.325 0.238,0.694 0.238,1.108 0,0.414 -0.079,0.783 -0.238,1.108 C 3.605,-0.996 3.392,-0.724 3.128,-0.505 2.862,-0.287 2.556,-0.119 2.208,0 1.862,0.117 1.493,0.177 1.105,0.177 0.716,0.177 0.347,0.117 0,0 M 3.233,2.023 C 3.899,1.815 4.481,1.514 4.983,1.113 5.483,0.714 5.88,0.218 6.174,-0.371 6.47,-0.959 6.617,-1.643 6.617,-2.421 6.617,-3.197 6.47,-3.88 6.174,-4.469 5.88,-5.059 5.483,-5.552 4.983,-5.953 4.481,-6.354 3.899,-6.647 3.233,-6.836 2.568,-7.024 1.858,-7.118 1.105,-7.118 c -0.753,0 -1.464,0.094 -2.128,0.282 -0.665,0.189 -1.249,0.482 -1.749,0.883 -0.501,0.401 -0.899,0.894 -1.193,1.484 -0.295,0.589 -0.441,1.272 -0.441,2.048 0,0.778 0.146,1.462 0.441,2.05 0.294,0.589 0.692,1.085 1.193,1.484 0.5,0.401 1.084,0.702 1.749,0.91 0.664,0.206 1.375,0.309 2.128,0.309 0.753,0 1.463,-0.103 2.128,-0.309"
             style="fill:#0962ae;fill-opacity:1;fill-rule:nonzero;stroke:none"
             id="path187182" /></g><g
           id="g187184"
           transform="translate(258.6207,334.1092)"><path
             d="M 0,0 C 0.093,0 0.165,0.032 0.212,0.097 0.259,0.161 0.294,0.294 0.317,0.494 H 0.529 V -2.563 H 0.317 C 0.294,-2.374 0.259,-2.258 0.212,-2.217 0.165,-2.175 0.093,-2.155 0,-2.155 h -9.221 v 0.212 c 0.224,0.023 0.362,0.061 0.415,0.115 0.053,0.053 0.078,0.12 0.078,0.202 v 8.232 c 0,0.082 -0.025,0.151 -0.078,0.203 -0.053,0.053 -0.191,0.091 -0.415,0.116 v 0.211 h 3.639 V 6.925 C -5.807,6.9 -5.944,6.862 -5.997,6.809 -6.051,6.757 -6.077,6.688 -6.077,6.606 V 0 Z"
             style="fill:#0962ae;fill-opacity:1;fill-rule:nonzero;stroke:none"
             id="path187186" /></g><g
           id="g187188"
           transform="translate(261.1363,332.1658)"><path
             d="m 0,0 c 0.223,0.023 0.361,0.062 0.415,0.115 0.053,0.053 0.08,0.12 0.08,0.202 V 8.55 C 0.495,8.632 0.468,8.7 0.415,8.752 0.361,8.806 0.223,8.844 0,8.868 V 9.079 H 3.639 V 8.868 C 3.416,8.844 3.277,8.806 3.224,8.752 3.172,8.7 3.145,8.632 3.145,8.55 V 0.317 C 3.145,0.235 3.172,0.168 3.224,0.115 3.277,0.062 3.416,0.023 3.639,0 V -0.212 H 0 Z"
             style="fill:#0962ae;fill-opacity:1;fill-rule:nonzero;stroke:none"
             id="path187190" /></g><g
           id="g187192"
           transform="translate(275.5807,332.1658)"><path
             d="m 0,0 c 0.225,0.023 0.363,0.062 0.416,0.115 0.053,0.053 0.08,0.12 0.08,0.202 V 6.818 L 0.46,6.854 -2.685,0 -5.794,6.925 H -5.828 V 0.317 c 0,-0.082 0.026,-0.149 0.08,-0.202 C -5.696,0.062 -5.557,0.023 -5.334,0 V -0.212 H -8.442 V 0 c 0.222,0.023 0.361,0.062 0.415,0.115 0.052,0.053 0.08,0.12 0.08,0.202 V 8.55 c 0,0.082 -0.028,0.15 -0.08,0.202 -0.054,0.054 -0.193,0.092 -0.415,0.116 v 0.211 h 4.61 V 8.868 C -4.114,8.855 -4.255,8.749 -4.255,8.55 c 0,-0.012 0.034,-0.106 0.105,-0.282 0.071,-0.178 0.162,-0.396 0.274,-0.655 0.111,-0.259 0.234,-0.538 0.371,-0.839 0.135,-0.299 0.264,-0.588 0.388,-0.866 0.124,-0.276 0.233,-0.519 0.327,-0.733 0.095,-0.211 0.158,-0.353 0.194,-0.423 0.2,0.447 0.407,0.883 0.618,1.307 0.212,0.423 0.405,0.813 0.576,1.166 0.17,0.352 0.308,0.647 0.414,0.882 0.106,0.237 0.158,0.383 0.158,0.443 0,0.199 -0.141,0.305 -0.423,0.318 V 9.079 H 3.534 V 8.868 C 3.311,8.844 3.172,8.806 3.118,8.752 3.065,8.7 3.039,8.632 3.039,8.55 V 0.317 C 3.039,0.235 3.065,0.168 3.118,0.115 3.172,0.062 3.311,0.023 3.534,0 V -0.212 H 0 Z"
             style="fill:#0962ae;fill-opacity:1;fill-rule:nonzero;stroke:none"
             id="path187194" /></g><g
           id="g187196"
           transform="translate(288.441,335.3445)"><path
             d="m 0,0 c -0.024,0.119 -0.074,0.215 -0.15,0.292 -0.077,0.077 -0.203,0.115 -0.379,0.115 h -3.286 v -1.642 h 5.67 c 0.094,0 0.165,0.032 0.212,0.096 0.047,0.065 0.082,0.209 0.106,0.433 h 0.213 v -3.02 H 2.173 C 2.149,-3.573 2.114,-3.479 2.067,-3.443 2.02,-3.408 1.949,-3.391 1.855,-3.391 h -8.814 v 0.212 c 0.224,0.024 0.362,0.062 0.415,0.116 0.053,0.052 0.08,0.12 0.08,0.202 v 8.232 c 0,0.082 -0.027,0.15 -0.08,0.202 -0.053,0.054 -0.191,0.092 -0.415,0.116 V 5.9 h 8.814 c 0.094,0 0.165,0.034 0.212,0.098 0.047,0.064 0.082,0.197 0.106,0.397 H 2.386 V 3.321 H 2.173 C 2.149,3.521 2.114,3.654 2.067,3.719 2.02,3.783 1.949,3.816 1.855,3.816 h -5.67 V 2.351 h 3.286 c 0.176,0 0.302,0.037 0.379,0.115 0.076,0.075 0.126,0.173 0.15,0.291 H 0.212 V 0 Z"
             style="fill:#0962ae;fill-opacity:1;fill-rule:nonzero;stroke:none"
             id="path187198" /></g><g
           id="g187200"
           transform="translate(292.3834,332.1658)"><path
             d="M 0,0 C 0.107,0 0.242,0.101 0.407,0.3 L 3.939,4.505 0.654,8.638 C 0.571,8.731 0.497,8.794 0.435,8.823 0.368,8.852 0.308,8.868 0.248,8.868 V 9.079 H 4.383 V 8.868 C 4.24,8.855 4.135,8.838 4.064,8.814 3.992,8.79 3.958,8.731 3.958,8.638 3.958,8.614 4.034,8.506 4.187,8.311 4.341,8.116 4.515,7.904 4.708,7.675 4.903,7.446 5.086,7.228 5.256,7.021 5.427,6.814 5.535,6.684 5.582,6.624 5.653,6.706 5.777,6.851 5.953,7.057 6.131,7.264 6.309,7.478 6.492,7.702 6.675,7.925 6.84,8.128 6.987,8.311 7.134,8.493 7.208,8.602 7.208,8.638 7.208,8.731 7.164,8.794 7.076,8.823 6.987,8.852 6.907,8.868 6.837,8.868 v 0.211 h 4.045 V 8.868 C 10.693,8.855 10.547,8.784 10.44,8.655 L 7.19,4.628 10.777,0.088 C 10.812,0.041 10.859,0.015 10.917,0.008 10.977,0.002 11.035,0 11.095,0 V -0.212 H 6.961 V 0 C 7.184,0 7.297,0.029 7.297,0.088 7.297,0.136 7.24,0.242 7.129,0.406 7.016,0.57 6.875,0.769 6.704,0.998 6.534,1.228 6.345,1.475 6.139,1.74 5.933,2.004 5.736,2.261 5.547,2.509 5.512,2.449 5.439,2.354 5.326,2.226 5.215,2.097 5.091,1.955 4.956,1.802 4.819,1.648 4.676,1.486 4.522,1.315 4.37,1.146 4.229,0.982 4.1,0.83 3.97,0.677 3.863,0.544 3.781,0.433 3.699,0.32 3.657,0.242 3.657,0.194 3.657,0.101 3.71,0.044 3.816,0.026 3.922,0.008 4.012,0 4.081,0 V -0.212 H 0 Z"
             style="fill:#0962ae;fill-opacity:1;fill-rule:nonzero;stroke:none"
             id="path187202" /></g><g
           id="g187204"
           transform="translate(224.3634,425.1971)"><path
             d="m 0,0 c -8.396,0 -15.266,-6.869 -15.266,-15.265 v -58.542 h 61.059 c 8.397,0 15.265,6.869 15.265,15.265 V 0 Z"
             style="fill:#0962ae;fill-opacity:1;fill-rule:nonzero;stroke:none"
             id="path187206" /></g><g
           id="g187208"
           transform="translate(250.4801,416.6312)"><path
             d="M 0,0 C -0.035,0 -0.071,-0.002 -0.106,-0.002 -0.121,-0.002 -0.138,0 -0.15,0 h -18.652 c -1.975,0 -3.601,-1.5 -3.796,-3.424 -0.014,-0.129 -0.021,-0.26 -0.021,-0.391 V -57.583 H 4.455 c -2.73,3.451 -4.366,7.811 -4.366,12.554 0,0.228 0.011,0.455 0.017,0.682 -0.184,-0.01 -0.369,-0.015 -0.555,-0.015 -6.466,0 -11.71,5.244 -11.71,11.71 0,6.466 5.244,11.709 11.71,11.709 0.163,0 0.325,-0.006 0.487,-0.013 0.066,0.006 0.131,0.012 0.198,0.015 0.021,0.002 0.04,0.004 0.062,0.006 1.828,0.051 3.539,0.57 5.018,1.442 2.713,1.551 4.262,4.087 4.849,6.423 0.214,0.849 0.31,1.7 0.306,2.54 0,0.02 0.002,0.039 0.002,0.059 C 10.473,-4.688 5.784,0 0,0"
             style="fill:#f58220;fill-opacity:1;fill-rule:nonzero;stroke:none"
             id="path187210" /></g></g></g><g
       id="g187212"
       transform="matrix(2.5,0,0,2.5,-1096.79,45.23774)"><g
         id="g187214"><g
           id="g187220"><g
             id="g187222"><path
               d="m 263.29,404.02 c -0.666,-4.014 -4.354,-10.726 -12.81,-10.835 v 0 c -0.121,0.007 -0.265,0.007 -0.428,-10e-4 v 0 c -0.007,0 -0.013,10e-4 -0.02,10e-4 v 0 c -5.085,0 -9.207,-4.122 -9.207,-9.206 v 0 c 0,-0.112 0.004,-0.224 0.009,-0.334 v 0 c -0.002,-0.08 -0.008,-0.157 -0.008,-0.239 v 0 c 0,0 0.011,-0.094 0.037,-0.255 v 0 c 0.409,-4.589 4.185,-8.207 8.84,-8.37 v 0 c 0.376,-0.033 0.764,-0.056 1.175,-0.056 v 0 c 12.772,0 20.504,11.48 20.504,19.941 v 0 c 0,7.962 -3.201,14.563 -10.203,18.938 v 0 c 0,0 3.007,-4.153 2.111,-9.584"
               style="fill:url(#radialGradient187230);stroke:none"
               id="path187232" /></g></g></g></g></g></svg>
